{
  "accessors": [
    {
      "bufferView": 2,
      "componentType": 5126,
      "count": 594,
      "max": [
        60.25146484375,
        35.55147933959961,
        24.105701446533203
      ],
      "min": [
        -59.97234344482422,
        32.01276397705078,
        -13.773167610168457
      ],
      "type": "VEC3"
    },
    {
      "bufferView": 2,
      "byteOffset": 7128,
      "componentType": 5126,
      "count": 594,
      "max": [
        0.8308572769165039,
        0.9996529817581177,
        0.9943153858184814
      ],
      "min": [
        -0.830866813659668,
        -0.9996529817581177,
        -0.9995009899139404
      ],
      "type": "VEC3"
    },
    {
      "bufferView": 3,
      "componentType": 5126,
      "count": 594,
      "max": [
        0.9497118592262268,
        0.9995074272155762,
        0.9996534585952759,
        1.0
      ],
      "min": [
        -0.9473587274551392,
        -0.9995907545089722,
        -0.9996635317802429,
        1.0
      ],
      "type": "VEC4"
    },
    {
      "bufferView": 1,
      "componentType": 5126,
      "count": 594,
      "max": [
        0.9876779913902283,
        0.8874970078468323
      ],
      "min": [
        0.010606000199913979,
        0.006810999941080809
      ],
      "type": "VEC2"
    },
    {
      "bufferView": 0,
      "componentType": 5125,
      "count": 2520,
      "type": "SCALAR"
    },
    {
      "bufferView": 2,
      "byteOffset": 14256,
      "componentType": 5126,
      "count": 3946,
      "max": [
        63.53553771972656,
        79.05070495605469,
        28.223445892333984
      ],
      "min": [
        -63.178688049316406,
        0.2177090048789978,
        -26.646818161010742
      ],
      "type": "VEC3"
    },
    {
      "bufferView": 2,
      "byteOffset": 61608,
      "componentType": 5126,
      "count": 3946,
      "max": [
        1.0,
        0.9999967813491821,
        0.9999980926513672
      ],
      "min": [
        -1.0,
        -1.0,
        -1.0
      ],
      "type": "VEC3"
    },
    {
      "bufferView": 3,
      "byteOffset": 9504,
      "componentType": 5126,
      "count": 3946,
      "max": [
        1.0,
        1.0,
        0.9999987483024597,
        1.0
      ],
      "min": [
        -1.0,
        -1.0,
        -0.9999957084655762,
        -1.0
      ],
      "type": "VEC4"
    },
    {
      "bufferView": 1,
      "byteOffset": 4752,
      "componentType": 5126,
      "count": 3946,
      "max": [
        0.9935640096664429,
        0.9974150061607361
      ],
      "min": [
        0.012392999604344368,
        0.010549000464379787
      ],
      "type": "VEC2"
    },
    {
      "bufferView": 0,
      "byteOffset": 10080,
      "componentType": 5125,
      "count": 19344,
      "type": "SCALAR"
    },
    {
      "bufferView": 2,
      "byteOffset": 108960,
      "componentType": 5126,
      "count": 2994,
      "max": [
        59.853763580322266,
        86.53237915039063,
        -14.82835865020752
      ],
      "min": [
        -59.46595001220703,
        49.874908447265625,
        -20.993389129638672
      ],
      "type": "VEC3"
    },
    {
      "bufferView": 2,
      "byteOffset": 144888,
      "componentType": 5126,
      "count": 2994,
      "max": [
        0.9999996423721313,
        0.999747097492218,
        0.9999977350234985
      ],
      "min": [
        -0.9999996423721313,
        -0.9997473359107971,
        -0.997138261795044
      ],
      "type": "VEC3"
    },
    {
      "bufferView": 3,
      "byteOffset": 72640,
      "componentType": 5126,
      "count": 2994,
      "max": [
        0.9999958872795105,
        0.9990791082382202,
        0.9997470378875732,
        1.0
      ],
      "min": [
        -0.9999911189079285,
        -0.9987908601760864,
        -0.9998843669891357,
        -1.0
      ],
      "type": "VEC4"
    },
    {
      "bufferView": 1,
      "byteOffset": 36320,
      "componentType": 5126,
      "count": 2994,
      "max": [
        0.9435470104217529,
        0.9900460243225098
      ],
      "min": [
        0.006465999875217676,
        0.004681999795138836
      ],
      "type": "VEC2"
    },
    {
      "bufferView": 0,
      "byteOffset": 87456,
      "componentType": 5125,
      "count": 15096,
      "type": "SCALAR"
    }
  ],
  "asset": {
    "extras": {
      "author": "assetfactory (https://sketchfab.com/assetfactory)",
      "license": "SKETCHFAB Standard (https://sketchfab.com/licenses)",
      "source": "https://sketchfab.com/3d-models/steampunk-bench-1-397e387f8f1c41979656f594eaf4ea56",
      "title": "Steampunk bench 1"
    },
    "generator": "Sketchfab-16.33.0",
    "version": "2.0"
  },
  "bufferViews": [
    {
      "buffer": 0,
      "byteLength": 147840,
      "name": "floatBufferViews",
      "target": 34963
    },
    {
      "buffer": 0,
      "byteLength": 60272,
      "byteOffset": 147840,
      "byteStride": 8,
      "name": "floatBufferViews",
      "target": 34962
    },
    {
      "buffer": 0,
      "byteLength": 180816,
      "byteOffset": 208112,
      "byteStride": 12,
      "name": "floatBufferViews",
      "target": 34962
    },
    {
      "buffer": 0,
      "byteLength": 120544,
      "byteOffset": 388928,
      "byteStride": 16,
      "name": "floatBufferViews",
      "target": 34962
    }
  ],
  "buffers": [
    {
      "byteLength": 509472,
      "uri": "scene.bin"
    }
  ],
  "extensionsUsed": [
    "KHR_materials_specular"
  ],
  "images": [
    {
      "uri": "textures/METAL_1_baseColor.png"
    },
    {
      "uri": "textures/METAL_1_metallicRoughness.png"
    },
    {
      "uri": "textures/METAL_1_normal.png"
    },
    {
      "uri": "textures/METAL_2_baseColor.png"
    },
    {
      "uri": "textures/METAL_2_metallicRoughness.png"
    },
    {
      "uri": "textures/METAL_2_normal.png"
    },
    {
      "uri": "textures/WOOD_1_baseColor.png"
    },
    {
      "uri": "textures/WOOD_1_metallicRoughness.png"
    },
    {
      "uri": "textures/WOOD_1_normal.png"
    }
  ],
  "materials": [
    {
      "doubleSided": true,
      "name": "METAL_1",
      "normalTexture": {
        "index": 2
      },
      "occlusionTexture": {
        "index": 1
      },
      "pbrMetallicRoughness": {
        "baseColorTexture": {
          "index": 0
        },
        "metallicRoughnessTexture": {
          "index": 1
        }
      }
    },
    {
      "doubleSided": true,
      "extensions": {
        "KHR_materials_specular": {
          "specularColorFactor": [
            1.0,
            1.0,
            1.0
          ],
          "specularFactor": 0.5836208262729943
        }
      },
      "name": "METAL_2",
      "normalTexture": {
        "index": 5
      },
      "occlusionTexture": {
        "index": 4
      },
      "pbrMetallicRoughness": {
        "baseColorTexture": {
          "index": 3
        },
        "metallicRoughnessTexture": {
          "index": 4
        }
      }
    },
    {
      "doubleSided": true,
      "extensions": {
        "KHR_materials_specular": {
          "specularColorFactor": [
            1.0,
            1.0,
            1.0
          ],
          "specularFactor": 0.6140971096292864
        }
      },
      "name": "WOOD_1",
      "normalTexture": {
        "index": 8
      },
      "occlusionTexture": {
        "index": 7
      },
      "pbrMetallicRoughness": {
        "baseColorTexture": {
          "index": 6
        },
        "metallicRoughnessTexture": {
          "index": 7
        }
      }
    }
  ],
  "meshes": [
    {
      "name": "defaultMaterial",
      "primitives": [
        {
          "attributes": {
            "NORMAL": 1,
            "POSITION": 0,
            "TANGENT": 2,
            "TEXCOORD_0": 3
          },
          "indices": 4,
          "material": 2,
          "mode": 4
        }
      ]
    },
    {
      "name": "defaultMaterial",
      "primitives": [
        {
          "attributes": {
            "NORMAL": 6,
            "POSITION": 5,
            "TANGENT": 7,
            "TEXCOORD_0": 8
          },
          "indices": 9,
          "material": 1,
          "mode": 4
        }
      ]
    },
    {
      "name": "defaultMaterial",
      "primitives": [
        {
          "attributes": {
            "NORMAL": 11,
            "POSITION": 10,
            "TANGENT": 12,
            "TEXCOORD_0": 13
          },
          "indices": 14,
          "material": 0,
          "mode": 4
        }
      ]
    }
  ],
  "nodes": [
    {
      "children": [
        1
      ],
      "matrix": [
        1.0,
        0.0,
        0.0,
        0.0,
        0.0,
        2.220446049250313e-16,
        -1.0,
        0.0,
        0.0,
        1.0,
        2.220446049250313e-16,
        0.0,
        0.0,
        0.0,
        0.0,
        1.0
      ],
      "name": "Sketchfab_model"
    },
    {
      "children": [
        2,
        4,
        6
      ],
      "matrix": [
        1.0,
        0.0,
        0.0,
        0.0,
        0.0,
        -4.371139006309477e-08,
        0.999999999999999,
        0.0,
        0.0,
        -0.999999999999999,
        -4.371139006309477e-08,
        0.0,
        0.0,
        0.0,
        0.0,
        1.0
      ],
      "name": "Collada visual scene group"
    },
    {
      "children": [
        3
      ],
      "name": "polySurface10"
    },
    {
      "mesh": 0,
      "name": "defaultMaterial"
    },
    {
      "children": [
        5
      ],
      "name": "Station_coverage_03:frame12"
    },
    {
      "mesh": 1,
      "name": "defaultMaterial"
    },
    {
      "children": [
        7
      ],
      "name": "group1"
    },
    {
      "children": [
        8
      ],
      "name": "Station_coverage_03:frame2"
    },
    {
      "mesh": 2,
      "name": "defaultMaterial"
    }
  ],
  "samplers": [
    {
      "magFilter": 9729,
      "minFilter": 9987,
      "wrapS": 10497,
      "wrapT": 10497
    }
  ],
  "scene": 0,
  "scenes": [
    {
      "name": "Sketchfab_Scene",
      "nodes": [
        0
      ]
    }
  ],
  "textures": [
    {
      "sampler": 0,
      "source": 0
    },
    {
      "sampler": 0,
      "source": 1
    },
    {
      "sampler": 0,
      "source": 2
    },
    {
      "sampler": 0,
      "source": 3
    },
    {
      "sampler": 0,
      "source": 4
    },
    {
      "sampler": 0,
      "source": 5
    },
    {
      "sampler": 0,
      "source": 6
    },
    {
      "sampler": 0,
      "source": 7
    },
    {
      "sampler": 0,
      "source": 8
    }
  ]
}
